# xmcd CD database file
#
# Track frame offsets:
#	150
#	24848
#	42887
#	58148
#	72641
#	95483
#	116144
#	131254
#	147824
#	160262
#
# Disc length: 2259 seconds
#
# Revision: 0
# Processed by: cddbd v1.5.2PL0 Copyright (c) Steve Scherf et al.
# Submitted via: CDex 1.51
#
DISCID=8908d10a
DTITLE=Fleetwood Mac - Bare Trees
DYEAR=1900
DGENRE=Blues
TTITLE0=Child Of Mine
TTITLE1=The Ghost
TTITLE2=Homward Bound
TTITLE3=Sunny Side Of Heaven
TTITLE4=Bare Trees
TTITLE5=Sentimental Lady
TTITLE6=Dannys Chant
TTITLE7=Spare Me A Little Of Your Love
TTITLE8=Dust
TTITLE9=Thoughts On A Grey Day
EXTD=
EXTT0=
EXTT1=
EXTT2=
EXTT3=
EXTT4=
EXTT5=
EXTT6=
EXTT7=
EXTT8=
EXTT9=
PLAYORDER=
